<svg width="236" height="71" viewBox="0 0 236 71" fill="none" xmlns="http://www.w3.org/2000/svg">
<path d="M20.0391 43.875C21.4219 43.875 22.6641 43.5469 23.7656 42.8906C24.8906 42.2344 25.7695 41.332 26.4023 40.1836C27.0352 39.0117 27.3516 37.6875 27.3516 36.2109C27.3516 34.7344 27.0352 33.4219 26.4023 32.2734C25.7695 31.1016 24.8906 30.1875 23.7656 29.5312C22.6641 28.875 21.4219 28.5469 20.0391 28.5469C18.6328 28.5469 17.3672 28.875 16.2422 29.5312C15.1406 30.1875 14.2734 31.1016 13.6406 32.2734C13.0312 33.4219 12.7266 34.7344 12.7266 36.2109C12.7266 37.6875 13.0312 39.0117 13.6406 40.1836C14.2734 41.332 15.1406 42.2344 16.2422 42.8906C17.3672 43.5469 18.6328 43.875 20.0391 43.875ZM27.0703 54.3516V49.8516H26.7539C24.6445 53.5078 21.3047 55.3359 16.7344 55.3359C13.5 55.3359 10.6055 54.5039 8.05078 52.8398C5.51953 51.1758 3.53906 48.8906 2.10938 45.9844C0.703125 43.0781 0 39.8203 0 36.2109C0 32.6016 0.703125 29.3438 2.10938 26.4375C3.53906 23.5312 5.51953 21.2461 8.05078 19.582C10.6055 17.918 13.5 17.0859 16.7344 17.0859C21.2812 17.0859 24.6094 18.8906 26.7188 22.5H27.0703V18.0703H39.7266V54.3516H27.0703Z" fill="white"/>
<path d="M45.5119 3.44531H58.2384V54.3516H45.5119V3.44531Z" fill="white"/>
<path d="M82.0941 43.1719C83.4769 43.1719 84.7191 42.8555 85.8206 42.2227C86.9456 41.5898 87.8245 40.6992 88.4573 39.5508C89.0902 38.4023 89.4066 37.1016 89.4066 35.6484C89.4066 34.1953 89.0902 32.8945 88.4573 31.7461C87.8245 30.5977 86.9456 29.707 85.8206 29.0742C84.7191 28.4414 83.4769 28.125 82.0941 28.125C80.6878 28.125 79.4222 28.4414 78.2972 29.0742C77.1956 29.707 76.3284 30.5977 75.6956 31.7461C75.0863 32.8945 74.7816 34.1953 74.7816 35.6484C74.7816 37.1016 75.0863 38.4023 75.6956 39.5508C76.3284 40.6992 77.1956 41.5898 78.2972 42.2227C79.4222 42.8555 80.6878 43.1719 82.0941 43.1719ZM80.8988 70.5234C77.2659 70.5234 74.0316 69.9023 71.1956 68.6602C68.3831 67.418 65.5003 65.4375 62.5472 62.7188L70.0706 54.9141C71.7113 56.5781 73.3402 57.7969 74.9573 58.5703C76.598 59.3438 78.3441 59.7422 80.1956 59.7656C82.9847 59.7422 85.1527 58.9336 86.6995 57.3398C88.2464 55.7461 89.0081 53.5312 88.9847 50.6953V48.9375H88.8089C86.6527 52.4531 83.3128 54.2109 78.7894 54.2109C75.555 54.2109 72.6605 53.4023 70.1058 51.7852C67.5745 50.168 65.5941 47.9531 64.1644 45.1406C62.7581 42.3047 62.055 39.1406 62.055 35.6484C62.055 32.1562 62.7581 29.0039 64.1644 26.1914C65.5941 23.3555 67.5745 21.1289 70.1058 19.5117C72.6605 17.8945 75.555 17.0859 78.7894 17.0859C83.3128 17.0859 86.6292 18.8203 88.7386 22.2891H88.9847V18.0703H101.711V50.6953C101.711 54.75 100.868 58.2656 99.18 61.2422C97.5159 64.2188 95.1136 66.5039 91.973 68.0977C88.8323 69.7148 85.1409 70.5234 80.8988 70.5234Z" fill="white"/>
<path d="M125.075 55.3359C121.418 55.3359 118.102 54.5039 115.125 52.8398C112.172 51.1758 109.84 48.8906 108.129 45.9844C106.442 43.0547 105.598 39.7969 105.598 36.2109C105.598 32.625 106.442 29.3789 108.129 26.4727C109.84 23.543 112.172 21.2461 115.125 19.582C118.102 17.918 121.418 17.0859 125.075 17.0859C128.707 17.0859 132 17.918 134.954 19.582C137.907 21.2461 140.227 23.543 141.915 26.4727C143.625 29.3789 144.481 32.625 144.481 36.2109C144.481 39.7969 143.625 43.0547 141.915 45.9844C140.227 48.8906 137.907 51.1758 134.954 52.8398C132 54.5039 128.707 55.3359 125.075 55.3359ZM125.075 43.875C126.481 43.875 127.747 43.5469 128.872 42.8906C129.997 42.2344 130.875 41.332 131.508 40.1836C132.141 39.0117 132.457 37.6875 132.457 36.2109C132.457 34.7344 132.141 33.4219 131.508 32.2734C130.875 31.1016 129.997 30.1875 128.872 29.5312C127.747 28.875 126.481 28.5469 125.075 28.5469C123.645 28.5469 122.356 28.875 121.207 29.5312C120.082 30.1875 119.204 31.1016 118.571 32.2734C117.938 33.4219 117.622 34.7344 117.622 36.2109C117.622 37.6875 117.938 39.0117 118.571 40.1836C119.204 41.332 120.082 42.2344 121.207 42.8906C122.356 43.5469 123.645 43.875 125.075 43.875Z" fill="white"/>
<path d="M148.298 18.0703H161.024V23.1328H161.27C162.278 21.2344 163.602 19.7578 165.243 18.7031C166.883 17.625 168.735 17.0859 170.798 17.0859C171.805 17.0859 172.907 17.25 174.102 17.5781V29.4609C172.555 29.0859 171.032 28.875 169.532 28.8281C166.719 28.8516 164.598 29.7305 163.169 31.4648C161.739 33.1992 161.024 35.7656 161.024 39.1641V54.3516H148.298V18.0703Z" fill="white"/>
<path d="M178.762 18.0703H191.489V54.3516H178.762V18.0703ZM185.126 14.2031C183.766 14.2031 182.536 13.8984 181.434 13.2891C180.333 12.6797 179.466 11.8359 178.833 10.7578C178.2 9.65625 177.884 8.4375 177.884 7.10156C177.884 5.76562 178.2 4.55859 178.833 3.48047C179.466 2.40234 180.333 1.55859 181.434 0.949219C182.536 0.316406 183.766 0 185.126 0C186.485 0 187.716 0.316406 188.817 0.949219C189.942 1.55859 190.821 2.40234 191.454 3.48047C192.11 4.55859 192.438 5.76562 192.438 7.10156C192.438 8.4375 192.11 9.65625 191.454 10.7578C190.821 11.8359 189.942 12.6797 188.817 13.2891C187.716 13.8984 186.485 14.2031 185.126 14.2031Z" fill="white"/>
<path d="M206.837 36.2109L194.392 18.0703H209.227L214.642 26.6484H214.923L220.267 18.0703H235.102L222.727 36.2109L235.032 54.3516H220.196L214.923 45.8438H214.642L209.298 54.3516H194.462L206.837 36.2109Z" fill="white"/>
</svg>
